<svg xmlns="http://www.w3.org/2000/svg" viewBox="0 0 1350 920" width="100%" height="100%" style="background:#0b0f19; font-family:'Inter', -apple-system, BlinkMacSystemFont, 'Segoe UI', Roboto, sans-serif;">
  <defs>
    <!-- Gradients -->
    <linearGradient id="bgGrad" x1="0%" y1="0%" x2="100%" y2="100%">
      <stop offset="0%" stop-color="#0b0f19"/>
      <stop offset="50%" stop-color="#111827"/>
      <stop offset="100%" stop-color="#0b0f19"/>
    </linearGradient>
    <linearGradient id="headerGradStudent" x1="0%" y1="0%" x2="100%" y2="0%">
      <stop offset="0%" stop-color="#4f46e5"/>
      <stop offset="100%" stop-color="#7c3aed"/>
    </linearGradient>
    <linearGradient id="headerGradHistory" x1="0%" y1="0%" x2="100%" y2="0%">
      <stop offset="0%" stop-color="#0284c7"/>
      <stop offset="100%" stop-color="#0ea5e9"/>
    </linearGradient>
    <linearGradient id="headerGradReg" x1="0%" y1="0%" x2="100%" y2="0%">
      <stop offset="0%" stop-color="#059669"/>
      <stop offset="100%" stop-color="#10b981"/>
    </linearGradient>
    <linearGradient id="headerGradItems" x1="0%" y1="0%" x2="100%" y2="0%">
      <stop offset="0%" stop-color="#d97706"/>
      <stop offset="100%" stop-color="#f59e0b"/>
    </linearGradient>
    <linearGradient id="headerGradCourse" x1="0%" y1="0%" x2="100%" y2="0%">
      <stop offset="0%" stop-color="#9333ea"/>
      <stop offset="100%" stop-color="#c084fc"/>
    </linearGradient>
    <linearGradient id="headerGradOffer" x1="0%" y1="0%" x2="100%" y2="0%">
      <stop offset="0%" stop-color="#e11d48"/>
      <stop offset="100%" stop-color="#f43f5e"/>
    </linearGradient>
    
    <!-- Drop Shadow Filter -->
    <filter id="shadow" x="-5%" y="-5%" width="110%" height="115%" filterUnits="userSpaceOnUse">
      <feDropShadow dx="0" dy="8" stdDeviation="10" flood-color="#000000" flood-opacity="0.5"/>
    </filter>

    <!-- Markers -->
    <marker id="arrow" viewBox="0 0 10 10" refX="6" refY="5" markerWidth="6" markerHeight="6" orient="auto-start-reverse">
      <path d="M 0 1 L 10 5 L 0 9 z" fill="#818cf8"/>
    </marker>
    <marker id="dot" viewBox="0 0 10 10" refX="5" refY="5" markerWidth="6" markerHeight="6">
      <circle cx="5" cy="5" r="3" fill="#818cf8"/>
    </marker>
  </defs>

  <!-- Grid Pattern Background -->
  <rect width="1350" height="920" fill="url(#bgGrad)"/>
  <g stroke="#1e293b" stroke-width="1" opacity="0.4">
    <path d="M0 50 H1350 M0 100 H1350 M0 150 H1350 M0 200 H1350 M0 250 H1350 M0 300 H1350 M0 350 H1350 M0 400 H1350 M0 450 H1350 M0 500 H1350 M0 550 H1350 M0 600 H1350 M0 650 H1350 M0 700 H1350 M0 750 H1350 M0 800 H1350 M0 850 H1350"/>
    <path d="M50 0 V920 M100 0 V920 M150 0 V920 M200 0 V920 M250 0 V920 M300 0 V920 M350 0 V920 M400 0 V920 M450 0 V920 M500 0 V920 M550 0 V920 M600 0 V920 M650 0 V920 M700 0 V920 M750 0 V920 M800 0 V920 M850 0 V920 M900 0 V920 M950 0 V920 M1000 0 V920 M1050 0 V920 M1100 0 V920 M1150 0 V920 M1200 0 V920 M1250 0 V920 M1300 0 V920"/>
  </g>

  <!-- Title & Metadata -->
  <text x="675" y="38" text-anchor="middle" fill="#f8fafc" font-size="22" font-weight="800" letter-spacing="0.5">ULAB Student Admission &amp; Course Advising System — Entity-Relationship Diagram</text>
  <text x="675" y="60" text-anchor="middle" fill="#94a3b8" font-size="12" font-weight="500">Database Engine: SQLite 3 (WAL Mode) • Foreign Keys Enforced • Academic Year: 2026</text>

  <!-- ================= RELATIONAL CONNECTORS ================= -->
  <!-- 1. students -> status_history (1:N) -->
  <path d="M 215 530 L 215 600" fill="none" stroke="#38bdf8" stroke-width="2.5" stroke-dasharray="5,5" marker-end="url(#arrow)"/>
  <rect x="180" y="555" width="70" height="20" rx="4" fill="#0f172a" stroke="#38bdf8" stroke-width="1"/>
  <text x="215" y="569" text-anchor="middle" fill="#38bdf8" font-size="10" font-weight="bold">1 : N Audit</text>

  <!-- 2. students -> course_registrations (1:N) -->
  <path d="M 390 220 L 490 220" fill="none" stroke="#10b981" stroke-width="2.5" marker-end="url(#arrow)"/>
  <rect x="410" y="210" width="60" height="20" rx="4" fill="#0f172a" stroke="#10b981" stroke-width="1"/>
  <text x="440" y="224" text-anchor="middle" fill="#10b981" font-size="10" font-weight="bold">1 : N Reg</text>

  <!-- 3. course_registrations -> course_registration_items (1:N) -->
  <path d="M 660 380 L 660 460" fill="none" stroke="#f59e0b" stroke-width="2.5" marker-end="url(#arrow)"/>
  <rect x="625" y="410" width="70" height="20" rx="4" fill="#0f172a" stroke="#f59e0b" stroke-width="1"/>
  <text x="660" y="424" text-anchor="middle" fill="#f59e0b" font-size="10" font-weight="bold">1 : N Items</text>

  <!-- 4. courses -> course_registration_items (1:N) -->
  <path d="M 920 280 L 890 280 L 890 560 L 830 560" fill="none" stroke="#f59e0b" stroke-width="2.5" marker-end="url(#arrow)"/>
  <rect x="850" y="410" width="80" height="20" rx="4" fill="#0f172a" stroke="#f59e0b" stroke-width="1"/>
  <text x="890" y="424" text-anchor="middle" fill="#f59e0b" font-size="10" font-weight="bold">1 : N Course</text>

  <!-- 5. courses -> offered_courses (1:N) -->
  <path d="M 1075 380 L 1075 460" fill="none" stroke="#f43f5e" stroke-width="2.5" marker-end="url(#arrow)"/>
  <rect x="1040" y="410" width="70" height="20" rx="4" fill="#0f172a" stroke="#f43f5e" stroke-width="1"/>
  <text x="1075" y="424" text-anchor="middle" fill="#f43f5e" font-size="10" font-weight="bold">1 : N Offer</text>


  <!-- ================= TABLE 1: STUDENTS ================= -->
  <g filter="url(#shadow)">
    <rect x="50" y="90" width="340" height="440" rx="12" fill="#1e293b" stroke="#334155" stroke-width="1.5"/>
    <path d="M 50 90 L 390 90 L 390 130 L 50 130 Z" fill="url(#headerGradStudent)" rx="12"/>
    <rect x="50" y="118" width="340" height="12" fill="#4f46e5"/>
    <text x="70" y="116" fill="#ffffff" font-size="14" font-weight="800">students</text>
    <text x="370" y="116" text-anchor="end" fill="#c7d2fe" font-size="11" font-weight="600">Core Entity</text>

    <!-- Attributes -->
    <!-- PK -->
    <g transform="translate(65, 150)">
      <rect x="0" y="-12" width="26" height="15" rx="3" fill="#eab308" opacity="0.2"/>
      <text x="4" y="0" fill="#facc15" font-size="9" font-weight="bold">PK</text>
      <text x="34" y="0" fill="#f8fafc" font-size="11" font-weight="600">id</text>
      <text x="300" y="0" text-anchor="end" fill="#94a3b8" font-size="10" font-family="monospace">INTEGER AUTO</text>
    </g>
    <!-- UK -->
    <g transform="translate(65, 172)">
      <rect x="0" y="-12" width="26" height="15" rx="3" fill="#a855f7" opacity="0.2"/>
      <text x="4" y="0" fill="#c084fc" font-size="9" font-weight="bold">UK</text>
      <text x="34" y="0" fill="#f8fafc" font-size="11" font-weight="600">registration_id</text>
      <text x="300" y="0" text-anchor="end" fill="#94a3b8" font-size="10" font-family="monospace">TEXT (REG10XX)</text>
    </g>
    <g transform="translate(65, 194)">
      <text x="34" y="0" fill="#cbd5e1" font-size="11">first_name</text>
      <text x="300" y="0" text-anchor="end" fill="#64748b" font-size="10" font-family="monospace">TEXT NOT NULL</text>
    </g>
    <g transform="translate(65, 216)">
      <text x="34" y="0" fill="#cbd5e1" font-size="11">last_name</text>
      <text x="300" y="0" text-anchor="end" fill="#64748b" font-size="10" font-family="monospace">TEXT NOT NULL</text>
    </g>
    <g transform="translate(65, 238)">
      <rect x="0" y="-12" width="26" height="15" rx="3" fill="#a855f7" opacity="0.2"/>
      <text x="4" y="0" fill="#c084fc" font-size="9" font-weight="bold">UK</text>
      <text x="34" y="0" fill="#f8fafc" font-size="11" font-weight="600">email</text>
      <text x="300" y="0" text-anchor="end" fill="#94a3b8" font-size="10" font-family="monospace">TEXT UNIQUE</text>
    </g>
    <g transform="translate(65, 260)">
      <rect x="0" y="-12" width="26" height="15" rx="3" fill="#a855f7" opacity="0.2"/>
      <text x="4" y="0" fill="#c084fc" font-size="9" font-weight="bold">UK</text>
      <text x="34" y="0" fill="#f8fafc" font-size="11" font-weight="600">phone</text>
      <text x="300" y="0" text-anchor="end" fill="#94a3b8" font-size="10" font-family="monospace">TEXT (11-digit)</text>
    </g>
    <g transform="translate(65, 282)">
      <text x="34" y="0" fill="#cbd5e1" font-size="11">date_of_birth</text>
      <text x="300" y="0" text-anchor="end" fill="#64748b" font-size="10" font-family="monospace">TEXT (Age &gt;= 16)</text>
    </g>
    <g transform="translate(65, 304)">
      <text x="34" y="0" fill="#cbd5e1" font-size="11">gender</text>
      <text x="300" y="0" text-anchor="end" fill="#64748b" font-size="10" font-family="monospace">TEXT</text>
    </g>
    <g transform="translate(65, 326)">
      <text x="34" y="0" fill="#cbd5e1" font-size="11">course_name</text>
      <text x="300" y="0" text-anchor="end" fill="#64748b" font-size="10" font-family="monospace">TEXT</text>
    </g>
    <g transform="translate(65, 348)">
      <text x="34" y="0" fill="#818cf8" font-size="11" font-weight="600">department</text>
      <text x="300" y="0" text-anchor="end" fill="#818cf8" font-size="10" font-family="monospace">TEXT (CSE/SE...)</text>
    </g>
    <g transform="translate(65, 370)">
      <text x="34" y="0" fill="#818cf8" font-size="11">semester</text>
      <text x="300" y="0" text-anchor="end" fill="#64748b" font-size="10" font-family="monospace">TEXT ('Spring')</text>
    </g>
    <g transform="translate(65, 392)">
      <text x="34" y="0" fill="#818cf8" font-size="11">academic_year</text>
      <text x="300" y="0" text-anchor="end" fill="#64748b" font-size="10" font-family="monospace">TEXT ('2026')</text>
    </g>
    <g transform="translate(65, 414)">
      <text x="34" y="0" fill="#cbd5e1" font-size="11">password</text>
      <text x="300" y="0" text-anchor="end" fill="#64748b" font-size="10" font-family="monospace">TEXT (Init=ID)</text>
    </g>
    <g transform="translate(65, 436)">
      <text x="34" y="0" fill="#cbd5e1" font-size="11">is_password_changed</text>
      <text x="300" y="0" text-anchor="end" fill="#64748b" font-size="10" font-family="monospace">INTEGER (0/1)</text>
    </g>
    <g transform="translate(65, 458)">
      <text x="34" y="0" fill="#10b981" font-size="11" font-weight="bold">status</text>
      <text x="300" y="0" text-anchor="end" fill="#10b981" font-size="10" font-family="monospace">TEXT (Sub/App/Rej)</text>
    </g>
    <g transform="translate(65, 480)">
      <text x="34" y="0" fill="#94a3b8" font-size="10">created_at / updated_at</text>
      <text x="300" y="0" text-anchor="end" fill="#64748b" font-size="10" font-family="monospace">DATETIME</text>
    </g>
  </g>

  <!-- ================= TABLE 2: STATUS_HISTORY ================= -->
  <g filter="url(#shadow)">
    <rect x="50" y="600" width="340" height="200" rx="12" fill="#1e293b" stroke="#334155" stroke-width="1.5"/>
    <path d="M 50 600 L 390 600 L 390 640 L 50 640 Z" fill="url(#headerGradHistory)" rx="12"/>
    <rect x="50" y="628" width="340" height="12" fill="#0284c7"/>
    <text x="70" y="626" fill="#ffffff" font-size="14" font-weight="800">status_history</text>
    <text x="370" y="626" text-anchor="end" fill="#bae6fd" font-size="11" font-weight="600">Audit Trail</text>

    <!-- Attributes -->
    <g transform="translate(65, 660)">
      <rect x="0" y="-12" width="26" height="15" rx="3" fill="#eab308" opacity="0.2"/>
      <text x="4" y="0" fill="#facc15" font-size="9" font-weight="bold">PK</text>
      <text x="34" y="0" fill="#f8fafc" font-size="11" font-weight="600">id</text>
      <text x="300" y="0" text-anchor="end" fill="#94a3b8" font-size="10" font-family="monospace">INTEGER AUTO</text>
    </g>
    <g transform="translate(65, 684)">
      <rect x="0" y="-12" width="26" height="15" rx="3" fill="#38bdf8" opacity="0.2"/>
      <text x="4" y="0" fill="#38bdf8" font-size="9" font-weight="bold">FK</text>
      <text x="34" y="0" fill="#f8fafc" font-size="11" font-weight="600">student_id</text>
      <text x="300" y="0" text-anchor="end" fill="#38bdf8" font-size="10" font-family="monospace">&gt; students.id</text>
    </g>
    <g transform="translate(65, 708)">
      <text x="34" y="0" fill="#cbd5e1" font-size="11">old_status</text>
      <text x="300" y="0" text-anchor="end" fill="#64748b" font-size="10" font-family="monospace">TEXT</text>
    </g>
    <g transform="translate(65, 732)">
      <text x="34" y="0" fill="#cbd5e1" font-size="11">new_status</text>
      <text x="300" y="0" text-anchor="end" fill="#64748b" font-size="10" font-family="monospace">TEXT</text>
    </g>
    <g transform="translate(65, 756)">
      <text x="34" y="0" fill="#cbd5e1" font-size="11">remarks</text>
      <text x="300" y="0" text-anchor="end" fill="#64748b" font-size="10" font-family="monospace">TEXT (Admin audit)</text>
    </g>
    <g transform="translate(65, 780)">
      <text x="34" y="0" fill="#94a3b8" font-size="10">updated_at</text>
      <text x="300" y="0" text-anchor="end" fill="#64748b" font-size="10" font-family="monospace">DATETIME</text>
    </g>
  </g>

  <!-- ================= TABLE 3: COURSE_REGISTRATIONS ================= -->
  <g filter="url(#shadow)">
    <rect x="490" y="90" width="340" height="290" rx="12" fill="#1e293b" stroke="#334155" stroke-width="1.5"/>
    <path d="M 490 90 L 830 90 L 830 130 L 490 130 Z" fill="url(#headerGradReg)" rx="12"/>
    <rect x="490" y="118" width="340" height="12" fill="#059669"/>
    <text x="510" y="116" fill="#ffffff" font-size="14" font-weight="800">course_registrations</text>
    <text x="810" y="116" text-anchor="end" fill="#a7f3d0" font-size="11" font-weight="600">Advising Header</text>

    <!-- Attributes -->
    <g transform="translate(505, 155)">
      <rect x="0" y="-12" width="26" height="15" rx="3" fill="#eab308" opacity="0.2"/>
      <text x="4" y="0" fill="#facc15" font-size="9" font-weight="bold">PK</text>
      <text x="34" y="0" fill="#f8fafc" font-size="11" font-weight="600">id</text>
      <text x="300" y="0" text-anchor="end" fill="#94a3b8" font-size="10" font-family="monospace">INTEGER AUTO</text>
    </g>
    <g transform="translate(505, 185)">
      <rect x="0" y="-12" width="26" height="15" rx="3" fill="#38bdf8" opacity="0.2"/>
      <text x="4" y="0" fill="#38bdf8" font-size="9" font-weight="bold">FK</text>
      <text x="34" y="0" fill="#f8fafc" font-size="11" font-weight="600">student_id</text>
      <text x="300" y="0" text-anchor="end" fill="#38bdf8" font-size="10" font-family="monospace">&gt; students.id</text>
    </g>
    <g transform="translate(505, 215)">
      <text x="34" y="0" fill="#cbd5e1" font-size="11">semester</text>
      <text x="300" y="0" text-anchor="end" fill="#64748b" font-size="10" font-family="monospace">TEXT (Spring/Summer)</text>
    </g>
    <g transform="translate(505, 245)">
      <text x="34" y="0" fill="#cbd5e1" font-size="11">academic_year</text>
      <text x="300" y="0" text-anchor="end" fill="#64748b" font-size="10" font-family="monospace">TEXT ('2026')</text>
    </g>
    <g transform="translate(505, 275)">
      <text x="34" y="0" fill="#10b981" font-size="11" font-weight="bold">total_credits</text>
      <text x="300" y="0" text-anchor="end" fill="#10b981" font-size="10" font-family="monospace">REAL (&lt;= 15.0)</text>
    </g>
    <g transform="translate(505, 305)">
      <text x="34" y="0" fill="#cbd5e1" font-size="11">status</text>
      <text x="300" y="0" text-anchor="end" fill="#64748b" font-size="10" font-family="monospace">TEXT ('Completed')</text>
    </g>
    <g transform="translate(505, 335)">
      <text x="34" y="0" fill="#94a3b8" font-size="10">registered_at</text>
      <text x="300" y="0" text-anchor="end" fill="#64748b" font-size="10" font-family="monospace">DATETIME</text>
    </g>
    <g transform="translate(505, 360)">
      <text x="0" y="0" fill="#6ee7b7" font-size="9" font-style="italic">UNIQUE(student_id, semester, academic_year)</text>
    </g>
  </g>

  <!-- ================= TABLE 4: COURSE_REGISTRATION_ITEMS ================= -->
  <g filter="url(#shadow)">
    <rect x="490" y="460" width="340" height="230" rx="12" fill="#1e293b" stroke="#334155" stroke-width="1.5"/>
    <path d="M 490 460 L 830 460 L 830 500 L 490 500 Z" fill="url(#headerGradItems)" rx="12"/>
    <rect x="490" y="488" width="340" height="12" fill="#d97706"/>
    <text x="510" y="486" fill="#ffffff" font-size="14" font-weight="800">course_registration_items</text>
    <text x="810" y="486" text-anchor="end" fill="#fef3c7" font-size="11" font-weight="600">Join Table</text>

    <!-- Attributes -->
    <g transform="translate(505, 525)">
      <rect x="0" y="-12" width="26" height="15" rx="3" fill="#eab308" opacity="0.2"/>
      <text x="4" y="0" fill="#facc15" font-size="9" font-weight="bold">PK</text>
      <text x="34" y="0" fill="#f8fafc" font-size="11" font-weight="600">id</text>
      <text x="300" y="0" text-anchor="end" fill="#94a3b8" font-size="10" font-family="monospace">INTEGER AUTO</text>
    </g>
    <g transform="translate(505, 555)">
      <rect x="0" y="-12" width="26" height="15" rx="3" fill="#38bdf8" opacity="0.2"/>
      <text x="4" y="0" fill="#38bdf8" font-size="9" font-weight="bold">FK</text>
      <text x="34" y="0" fill="#f8fafc" font-size="11" font-weight="600">registration_id</text>
      <text x="300" y="0" text-anchor="end" fill="#38bdf8" font-size="10" font-family="monospace">&gt; course_reg.id</text>
    </g>
    <g transform="translate(505, 585)">
      <rect x="0" y="-12" width="26" height="15" rx="3" fill="#38bdf8" opacity="0.2"/>
      <text x="4" y="0" fill="#38bdf8" font-size="9" font-weight="bold">FK</text>
      <text x="34" y="0" fill="#f8fafc" font-size="11" font-weight="600">course_id</text>
      <text x="300" y="0" text-anchor="end" fill="#38bdf8" font-size="10" font-family="monospace">&gt; courses.id</text>
    </g>
    <g transform="translate(505, 615)">
      <text x="34" y="0" fill="#94a3b8" font-size="10">cascade_delete</text>
      <text x="300" y="0" text-anchor="end" fill="#64748b" font-size="10" font-family="monospace">ON DELETE CASCADE</text>
    </g>
    <g transform="translate(505, 650)">
      <text x="0" y="0" fill="#fcd34d" font-size="9" font-style="italic">UNIQUE(registration_id, course_id)</text>
    </g>
  </g>

  <!-- ================= TABLE 5: COURSES ================= -->
  <g filter="url(#shadow)">
    <rect x="920" y="90" width="340" height="290" rx="12" fill="#1e293b" stroke="#334155" stroke-width="1.5"/>
    <path d="M 920 90 L 1260 90 L 1260 130 L 920 130 Z" fill="url(#headerGradCourse)" rx="12"/>
    <rect x="920" y="118" width="340" height="12" fill="#9333ea"/>
    <text x="940" y="116" fill="#ffffff" font-size="14" font-weight="800">courses</text>
    <text x="1240" y="116" text-anchor="end" fill="#f3e8ff" font-size="11" font-weight="600">Master Catalog</text>

    <!-- Attributes -->
    <g transform="translate(935, 155)">
      <rect x="0" y="-12" width="26" height="15" rx="3" fill="#eab308" opacity="0.2"/>
      <text x="4" y="0" fill="#facc15" font-size="9" font-weight="bold">PK</text>
      <text x="34" y="0" fill="#f8fafc" font-size="11" font-weight="600">id</text>
      <text x="300" y="0" text-anchor="end" fill="#94a3b8" font-size="10" font-family="monospace">INTEGER AUTO</text>
    </g>
    <g transform="translate(935, 185)">
      <rect x="0" y="-12" width="26" height="15" rx="3" fill="#a855f7" opacity="0.2"/>
      <text x="4" y="0" fill="#c084fc" font-size="9" font-weight="bold">UK</text>
      <text x="34" y="0" fill="#f8fafc" font-size="11" font-weight="600">course_code</text>
      <text x="300" y="0" text-anchor="end" fill="#94a3b8" font-size="10" font-family="monospace">TEXT (e.g. CSE 101)</text>
    </g>
    <g transform="translate(935, 215)">
      <text x="34" y="0" fill="#cbd5e1" font-size="11">course_title</text>
      <text x="300" y="0" text-anchor="end" fill="#64748b" font-size="10" font-family="monospace">TEXT NOT NULL</text>
    </g>
    <g transform="translate(935, 245)">
      <text x="34" y="0" fill="#f59e0b" font-size="11" font-weight="bold">credit_hours</text>
      <text x="300" y="0" text-anchor="end" fill="#f59e0b" font-size="10" font-family="monospace">REAL (Default 3.0)</text>
    </g>
    <g transform="translate(935, 275)">
      <text x="34" y="0" fill="#818cf8" font-size="11" font-weight="600">department</text>
      <text x="300" y="0" text-anchor="end" fill="#818cf8" font-size="10" font-family="monospace">TEXT (CSE/SE/EEE)</text>
    </g>
    <g transform="translate(935, 305)">
      <text x="34" y="0" fill="#cbd5e1" font-size="11">description</text>
      <text x="300" y="0" text-anchor="end" fill="#64748b" font-size="10" font-family="monospace">TEXT</text>
    </g>
    <g transform="translate(935, 335)">
      <text x="34" y="0" fill="#94a3b8" font-size="10">created_at</text>
      <text x="300" y="0" text-anchor="end" fill="#64748b" font-size="10" font-family="monospace">DATETIME</text>
    </g>
  </g>

  <!-- ================= TABLE 6: OFFERED_COURSES ================= -->
  <g filter="url(#shadow)">
    <rect x="920" y="460" width="340" height="280" rx="12" fill="#1e293b" stroke="#334155" stroke-width="1.5"/>
    <path d="M 920 460 L 1260 460 L 1260 500 L 920 500 Z" fill="url(#headerGradOffer)" rx="12"/>
    <rect x="920" y="488" width="340" height="12" fill="#e11d48"/>
    <text x="940" y="486" fill="#ffffff" font-size="14" font-weight="800">offered_courses</text>
    <text x="1240" y="486" text-anchor="end" fill="#ffe4e6" font-size="11" font-weight="600">Semester Offerings</text>

    <!-- Attributes -->
    <g transform="translate(935, 525)">
      <rect x="0" y="-12" width="26" height="15" rx="3" fill="#eab308" opacity="0.2"/>
      <text x="4" y="0" fill="#facc15" font-size="9" font-weight="bold">PK</text>
      <text x="34" y="0" fill="#f8fafc" font-size="11" font-weight="600">id</text>
      <text x="300" y="0" text-anchor="end" fill="#94a3b8" font-size="10" font-family="monospace">INTEGER AUTO</text>
    </g>
    <g transform="translate(935, 555)">
      <rect x="0" y="-12" width="26" height="15" rx="3" fill="#38bdf8" opacity="0.2"/>
      <text x="4" y="0" fill="#38bdf8" font-size="9" font-weight="bold">FK</text>
      <text x="34" y="0" fill="#f8fafc" font-size="11" font-weight="600">course_id</text>
      <text x="300" y="0" text-anchor="end" fill="#38bdf8" font-size="10" font-family="monospace">&gt; courses.id</text>
    </g>
    <g transform="translate(935, 585)">
      <text x="34" y="0" fill="#818cf8" font-size="11" font-weight="600">department</text>
      <text x="300" y="0" text-anchor="end" fill="#818cf8" font-size="10" font-family="monospace">TEXT (CSE/BBA...)</text>
    </g>
    <g transform="translate(935, 615)">
      <text x="34" y="0" fill="#cbd5e1" font-size="11">semester</text>
      <text x="300" y="0" text-anchor="end" fill="#64748b" font-size="10" font-family="monospace">TEXT (Spring/Summer)</text>
    </g>
    <g transform="translate(935, 645)">
      <text x="34" y="0" fill="#cbd5e1" font-size="11">academic_year</text>
      <text x="300" y="0" text-anchor="end" fill="#64748b" font-size="10" font-family="monospace">TEXT ('2026')</text>
    </g>
    <g transform="translate(935, 675)">
      <text x="34" y="0" fill="#10b981" font-size="11" font-weight="bold">is_open</text>
      <text x="300" y="0" text-anchor="end" fill="#10b981" font-size="10" font-family="monospace">INTEGER (1=Active)</text>
    </g>
    <g transform="translate(935, 715)">
      <text x="0" y="0" fill="#fda4af" font-size="9" font-style="italic">UNIQUE(course_id, dept, semester, academic_year)</text>
    </g>
  </g>

  <!-- Legend Box -->
  <g transform="translate(490, 720)">
    <rect width="340" height="120" rx="8" fill="#1e293b" stroke="#334155" stroke-width="1"/>
    <text x="15" y="25" fill="#f8fafc" font-size="12" font-weight="bold">Diagram Legend &amp; Relations</text>
    <g transform="translate(15, 50)">
      <rect x="0" y="-10" width="22" height="14" rx="2" fill="#eab308" opacity="0.2"/>
      <text x="3" y="1" fill="#facc15" font-size="8" font-weight="bold">PK</text>
      <text x="28" y="1" fill="#94a3b8" font-size="10">Primary Key</text>

      <rect x="105" y="-10" width="22" height="14" rx="2" fill="#38bdf8" opacity="0.2"/>
      <text x="108" y="1" fill="#38bdf8" font-size="8" font-weight="bold">FK</text>
      <text x="133" y="1" fill="#94a3b8" font-size="10">Foreign Key</text>

      <rect x="210" y="-10" width="22" height="14" rx="2" fill="#a855f7" opacity="0.2"/>
      <text x="213" y="1" fill="#c084fc" font-size="8" font-weight="bold">UK</text>
      <text x="238" y="1" fill="#94a3b8" font-size="10">Unique Key</text>
    </g>
    <g transform="translate(15, 80)">
      <line x1="0" y1="0" x2="35" y2="0" stroke="#818cf8" stroke-width="2"/>
      <text x="45" y="4" fill="#94a3b8" font-size="10">1 : N Cardinality Relationship Link</text>
    </g>
    <g transform="translate(15, 100)">
      <line x1="0" y1="0" x2="35" y2="0" stroke="#38bdf8" stroke-width="2" stroke-dasharray="4,4"/>
      <text x="45" y="4" fill="#94a3b8" font-size="10">Audit / Historical Tracking Relationship</text>
    </g>
  </g>

  <!-- Footer Notice -->
  <text x="675" y="880" text-anchor="middle" fill="#64748b" font-size="11">University of Liberal Arts Bangladesh (ULAB) • Web Application Architecture • Generated September 2026</text>
</svg>
